<svg width="86" height="40" viewBox="0 0 86 40" fill="none" xmlns="http://www.w3.org/2000/svg">
<g clip-path="url(#clip0_2743_1195)">
<path d="M9.65148 20.2046C8.25349 19.6669 6.49107 18.1136 5.9265 16.7276C5.12566 18.6399 3.64108 20.1851 1.76242 21.0619L0 18.6184C2.81688 17.2712 4.23876 14.8965 4.23876 11.8077V10.2365H7.39618V11.7301C7.39618 14.8158 8.84196 16.6768 11.3661 17.7552L9.65148 20.2046ZM4.01771 30.7134V24.8108H15.8468V23.8549H3.96693V21.3308H19.1536V27.1378H7.24981V28.1773H19.7421V30.7254L4.01771 30.7134ZM11.856 20.2584V15.8703H9.529V13.3222H11.856V9.43894H14.867V20.2524L11.856 20.2584ZM16.0918 20.4316V9.05957H19.1177V20.4257L16.0918 20.4316Z" fill="black"/>
<path d="M36.0546 25.1035C31.6609 25.6854 27.2355 25.9967 22.8036 26.0355L22.4033 23.3142C23.2606 23.3411 24.1956 23.3411 25.1963 23.3411C24.9275 20.5242 24.6556 17.6327 24.4107 14.7919C25.4651 14.6933 26.5196 14.5709 27.595 14.5231L27.9624 23.2664C28.7241 23.2426 29.456 23.1918 30.1938 23.144C30.3641 20.2524 30.5851 17.3877 30.7315 14.4962C31.786 14.5948 32.8225 14.6933 33.868 14.8158C33.5693 17.5341 33.2706 20.2285 32.9719 22.9468C34.0263 22.8512 34.9583 22.7288 35.7409 22.6302L36.0546 25.1035ZM22.95 13.5164V10.9952H34.9493V13.5164H22.95ZM37.3062 30.8837V9.05957H40.5622V30.8837H37.3062Z" fill="black"/>
<path d="M44.3589 28.1772V25.6411H49.0875V21.0379H52.3196V25.6411H56.0177V21.0379H59.2767V25.6411H64.0771V28.1772H44.3589ZM62.0697 21.1485C59.3245 20.6347 55.4054 18.5019 54.1806 15.3415C52.9858 18.478 49.0129 20.6586 46.2946 21.1724L44.8488 18.5258C48.4334 18.1105 52.466 15.3922 52.466 11.3984V10.3081H55.946V11.4104C55.946 15.4042 59.7905 18.0747 63.5633 18.5377L62.0697 21.1485Z" fill="black"/>
<path d="M68.6555 30.6393V23.8794H74.5343V22.6068H66.2808V20.0827H85.9959V22.6068H77.7454V23.8794H83.5973V30.6393H68.6555ZM68.8288 18.9327V13.2003H80.2427V12.2205H68.8527V9.83081H83.4748V15.5064H72.1236V16.4593H83.7586V18.9356L68.8288 18.9327ZM80.3174 26.3288H71.8667V28.1779H80.3174V26.3288Z" fill="black"/>
</g>
<defs>
<clipPath id="clip0_2743_1195">
<rect width="86" height="21.8241" fill="white" transform="translate(0 9.05957)"/>
</clipPath>
</defs>
</svg>
