<svg width="162" height="74" viewBox="0 0 162 74" fill="none" xmlns="http://www.w3.org/2000/svg">
<path d="M1.17362 59.4079H0L0.380754 57.6072H1.55437C1.63052 57.092 1.7873 56.671 2.02471 56.344C2.26212 56.017 2.56225 55.7572 2.91612 55.5645C3.27 55.3764 3.66867 55.242 4.11214 55.1748C4.5556 55.1076 5.01699 55.0673 5.49629 55.0673C5.77849 55.0673 6.04278 55.0852 6.28467 55.1256C6.52656 55.1659 6.7371 55.2107 6.91628 55.2689L6.57136 56.8905C6.44593 56.8457 6.31603 56.8098 6.18165 56.783C6.04726 56.7561 5.89496 56.7426 5.72474 56.7426C5.36638 56.7516 5.10658 56.8233 4.94532 56.9621C4.78406 57.101 4.68551 57.316 4.64967 57.6072H6.30707L5.92632 59.4079H4.34059L3.22969 64.622H0.0671918L1.17362 59.4079Z" fill="black"/>
<path d="M9.52273 61.301C9.4645 61.5697 9.44658 61.8027 9.47346 61.9998C9.50033 62.1968 9.55857 62.3581 9.65264 62.4791C9.7467 62.6 9.86765 62.6941 10.011 62.7523C10.1588 62.8105 10.3201 62.8419 10.4993 62.8419C10.9382 62.8419 11.2876 62.7165 11.5474 62.4656C11.8028 62.2148 11.9909 61.8251 12.1029 61.2965L12.8868 57.6054H16.0538L14.5666 64.6202H11.7266L11.7132 64.1633H11.6908C11.5474 64.2529 11.3951 64.338 11.2339 64.4142C11.0726 64.4903 10.8845 64.5575 10.6784 64.6158C10.4724 64.6695 10.2439 64.7143 9.9886 64.7457C9.73327 64.777 9.4421 64.7905 9.1151 64.7905C8.52829 64.7905 8.03555 64.7098 7.64584 64.5441C7.25613 64.3783 6.95153 64.1409 6.74547 63.8318C6.53494 63.5228 6.41399 63.142 6.37816 62.6896C6.34232 62.2372 6.38712 61.722 6.51254 61.1397L7.26061 57.6054H10.3156L9.52273 61.301Z" fill="black"/>
<path d="M19.2482 64.6246H16.0723L18.0656 55.2267H21.2416L19.2482 64.6246Z" fill="black"/>
<path d="M22.5364 59.4064H21.3628L21.7435 57.6057H22.9172C22.9933 57.0906 23.1501 56.6695 23.3875 56.3425C23.6249 56.0155 23.925 55.7557 24.2789 55.5631C24.6328 55.3749 25.0315 55.2406 25.4749 55.1734C25.9184 55.1062 26.3798 55.0659 26.8591 55.0659C27.1413 55.0659 27.4056 55.0838 27.6475 55.1241C27.8894 55.1599 28.0999 55.2092 28.2791 55.2674L27.9342 56.889C27.8087 56.8442 27.6788 56.8084 27.5444 56.7815C27.4101 56.7546 27.2578 56.7412 27.0875 56.7412C26.7292 56.7501 26.4694 56.8218 26.3081 56.9607C26.1468 57.0995 26.0483 57.3145 26.0125 57.6057H27.6699L27.2891 59.4064H25.7123L24.6014 64.6205H21.4345L22.5364 59.4064Z" fill="black"/>
<path d="M28.6141 57.6052H31.7901L30.3029 64.62H27.127L28.6141 57.6052ZM31.9155 57.0452H28.7396L29.1203 55.2221H32.2962L31.9155 57.0452Z" fill="black"/>
<path d="M34.9938 64.6246H31.8179L33.8112 55.2267H36.9872L34.9938 64.6246Z" fill="black"/>
<path d="M39.6837 64.6246H36.5078L38.5012 55.2267H41.6771L39.6837 64.6246Z" fill="black"/>
<path d="M42.68 57.6065H45.5334L45.511 58.265H45.5423C45.9231 57.929 46.3486 57.6961 46.8145 57.5707C47.2804 57.4452 47.7955 57.3781 48.3554 57.3781C48.5928 57.3781 48.8168 57.4049 49.0273 57.4587C49.2379 57.5124 49.4215 57.5796 49.5873 57.6647C49.753 57.7498 49.8874 57.8484 49.9949 57.9604C50.1024 58.0724 50.1786 58.1844 50.2234 58.2963C50.2592 58.2829 50.3443 58.2247 50.4787 58.1306C50.6131 58.0321 50.8012 57.929 51.0476 57.817C51.294 57.705 51.603 57.6065 51.9703 57.5124C52.3421 57.4228 52.7767 57.3781 53.2739 57.3781C53.789 57.3781 54.2101 57.4452 54.5326 57.5841C54.8551 57.723 55.106 57.9021 55.2717 58.1261C55.4419 58.3501 55.5405 58.6054 55.5808 58.8921C55.6166 59.1788 55.6032 59.47 55.536 59.7701L54.5057 64.6168H51.4418L52.257 60.7914C52.2884 60.6257 52.3063 60.4689 52.3242 60.3166C52.3377 60.1643 52.3242 60.0299 52.2794 59.9134C52.2346 59.797 52.154 59.7074 52.0331 59.6402C51.9121 59.573 51.7374 59.5416 51.509 59.5416C51.3074 59.5416 51.1327 59.5775 50.9849 59.6536C50.8326 59.7298 50.7071 59.8283 50.5996 59.9582C50.4921 60.0836 50.4025 60.2315 50.3309 60.3927C50.2592 60.5585 50.2054 60.7332 50.1696 60.9168L49.3857 64.6213H46.3218L47.137 60.7959C47.1684 60.6301 47.1863 60.4734 47.2042 60.3211C47.2176 60.1688 47.2042 60.0344 47.1594 59.9179C47.1146 59.8014 47.034 59.7118 46.913 59.6447C46.7921 59.5775 46.6174 59.5461 46.3889 59.5461C46.1874 59.5461 46.0127 59.5864 45.8649 59.6626C45.7126 59.7387 45.5871 59.8462 45.4796 59.9761C45.3721 60.106 45.2825 60.2583 45.2109 60.4286C45.1392 60.5988 45.0854 60.778 45.0496 60.9661L44.2746 64.6258H41.1973L42.68 57.6065Z" fill="black"/>
<path d="M64.6026 62.3278C64.3876 62.8206 64.1233 63.2282 63.8187 63.5463C63.5141 63.8688 63.1647 64.1196 62.7795 64.3033C62.3943 64.4869 61.9687 64.6124 61.5028 64.684C61.0415 64.7557 60.5442 64.7915 60.0157 64.7915C59.3796 64.7915 58.8062 64.7378 58.2956 64.6348C57.7849 64.5317 57.3638 64.3391 57.0324 64.0614C56.7009 63.7837 56.4769 63.4074 56.3649 62.9326C56.2529 62.4533 56.2753 61.8441 56.4321 61.096C56.5754 60.4151 56.8039 59.8417 57.1264 59.3669C57.4445 58.8921 57.8342 58.5114 58.2866 58.2157C58.739 57.9201 59.2452 57.7095 59.8007 57.5751C60.3606 57.4452 60.9519 57.3781 61.579 57.3781C62.2061 57.3781 62.7616 57.4497 63.2454 57.5886C63.7291 57.7319 64.1233 57.9514 64.4279 58.256C64.7281 58.5561 64.9341 58.9414 65.0371 59.4072C65.1402 59.8731 65.1312 60.433 65.0013 61.0915C64.9699 61.2125 64.9386 61.3379 64.9072 61.4678C64.8759 61.5977 64.84 61.7142 64.7997 61.8217H59.1825C59.1735 62.2248 59.2766 62.5115 59.4826 62.6907C59.6887 62.8654 60.0246 62.955 60.477 62.955C60.7593 62.955 61.028 62.9057 61.2699 62.8027C61.5163 62.7041 61.682 62.5429 61.7627 62.3278H64.6026ZM61.1803 59.3177C60.7458 59.3177 60.4009 59.3848 60.1456 59.5192C59.8902 59.6536 59.6842 59.891 59.5364 60.2359H62.3226C62.3226 59.9224 62.2375 59.6894 62.0717 59.5416C61.9015 59.3938 61.6059 59.3177 61.1803 59.3177Z" fill="black"/>
<path d="M66.9188 57.6065H69.8618L69.8529 58.1978H69.8887C70.2605 57.8932 70.6726 57.6782 71.1205 57.5572C71.5685 57.4363 72.115 57.3781 72.7645 57.3781C73.1363 57.3781 73.4857 57.4273 73.8037 57.5214C74.1263 57.6199 74.395 57.7678 74.619 57.9649C74.843 58.162 75.0042 58.4083 75.0938 58.7084C75.1879 59.0086 75.1879 59.358 75.0983 59.7611L74.068 64.6168H70.91L71.6939 60.9123C71.7387 60.7108 71.7701 60.5226 71.7835 60.3524C71.7969 60.1822 71.7835 60.0344 71.7342 59.9089C71.685 59.7835 71.5998 59.6894 71.4789 59.6223C71.3535 59.5551 71.1788 59.5237 70.9458 59.5237C70.8115 59.5237 70.6636 59.5506 70.4979 59.6088C70.3322 59.6671 70.1754 59.7566 70.0276 59.8821C69.8797 60.0075 69.7409 60.1732 69.6199 60.3703C69.499 60.5674 69.4049 60.8093 69.3467 61.0915L68.5986 64.6168H65.4316L66.9188 57.6065Z" fill="black"/>
<path d="M80.8322 57.6057H82.521L82.1402 59.4065H80.4515L79.905 61.9598C79.8378 62.2868 79.8467 62.5287 79.9363 62.681C80.0259 62.8333 80.2723 62.9094 80.6754 62.9094C80.9352 62.9094 81.1816 62.8825 81.4145 62.8288L81.0472 64.5758C80.7202 64.6519 80.3798 64.7057 80.0304 64.737C79.681 64.7684 79.3271 64.7863 78.9777 64.7863C78.6417 64.7863 78.3103 64.7594 77.9878 64.7012C77.6652 64.6474 77.383 64.5355 77.1456 64.3652C76.9082 64.195 76.738 63.9621 76.6305 63.662C76.523 63.3618 76.5185 62.9677 76.626 62.4794L77.2845 59.402H76.187L76.5678 57.6013H77.6652L77.8354 56.8174L81.3384 55.2182L80.8322 57.6057Z" fill="black"/>
<path d="M87.6139 57.6059H90.6689V58.1748H90.7002C90.9779 57.9509 91.3184 57.7627 91.7305 57.6104C92.1381 57.4581 92.5726 57.382 93.0295 57.382C93.7238 57.382 94.2703 57.4805 94.6735 57.6776C95.0766 57.8747 95.3678 58.1479 95.5515 58.4884C95.7351 58.8333 95.8247 59.232 95.8247 59.6844C95.8247 60.1368 95.771 60.6251 95.6545 61.1402C95.5425 61.6778 95.3723 62.166 95.1438 62.605C94.9154 63.044 94.6332 63.4247 94.2927 63.7428C93.9523 64.0608 93.5536 64.3072 93.0878 64.4819C92.6264 64.6566 92.0978 64.7462 91.511 64.7462C91.184 64.7462 90.9018 64.7327 90.6733 64.7014C90.4404 64.67 90.2433 64.6297 90.0731 64.5715C89.9029 64.5177 89.7595 64.4505 89.6431 64.3699C89.5221 64.2938 89.4101 64.2086 89.3071 64.1191H89.2847L88.783 66.5245H85.728L87.6139 57.6059ZM89.9074 61.2567C89.7954 61.7853 89.8133 62.175 89.9566 62.4258C90.1045 62.6767 90.4001 62.8021 90.848 62.8021C91.2064 62.8021 91.5334 62.6812 91.8335 62.4393C92.1336 62.1974 92.3397 61.8032 92.4606 61.2567L92.5054 61.0417C92.6174 60.5041 92.5816 60.1144 92.3934 59.8681C92.2098 59.6217 91.9231 59.5007 91.5424 59.5007C91.0944 59.5007 90.745 59.6217 90.4986 59.8681C90.2478 60.1144 90.0686 60.5041 89.9566 61.0417L89.9074 61.2567Z" fill="black"/>
<path d="M99.2736 64.6246H96.0977L98.091 55.2267H101.267L99.2736 64.6246Z" fill="black"/>
<path d="M108.828 64.6252H105.885L105.863 64.1997H105.831C105.406 64.4326 104.971 64.5894 104.519 64.67C104.071 64.7507 103.592 64.791 103.076 64.791C102.682 64.791 102.333 64.7507 102.024 64.67C101.719 64.5894 101.464 64.464 101.262 64.2938C101.061 64.1235 100.922 63.913 100.846 63.6487C100.77 63.3889 100.77 63.0753 100.846 62.7215C100.967 62.175 101.217 61.7405 101.603 61.4135C101.988 61.0865 102.449 60.8356 102.991 60.6564C103.533 60.4817 104.116 60.3608 104.747 60.2936C105.379 60.2264 105.997 60.1727 106.611 60.1368L106.633 60.0338C106.669 59.8546 106.673 59.7068 106.647 59.5903C106.615 59.4739 106.561 59.3843 106.485 59.3216C106.409 59.2588 106.311 59.2141 106.194 59.1872C106.078 59.1603 105.957 59.1469 105.831 59.1469C105.594 59.1469 105.401 59.1693 105.253 59.2141C105.106 59.2589 104.994 59.3171 104.913 59.3888C104.828 59.4604 104.774 59.5411 104.738 59.6306C104.707 59.7202 104.68 59.8053 104.667 59.8905H101.759C101.871 59.3977 102.078 58.9901 102.387 58.6631C102.691 58.3406 103.054 58.0808 103.471 57.8926C103.887 57.7045 104.344 57.5701 104.832 57.4939C105.321 57.4178 105.809 57.382 106.293 57.382C106.88 57.382 107.386 57.4223 107.802 57.5074C108.219 57.588 108.564 57.709 108.833 57.8613C109.101 58.0136 109.307 58.1972 109.446 58.4033C109.59 58.6138 109.684 58.8423 109.737 59.0931C109.787 59.344 109.805 59.6127 109.778 59.8994C109.751 60.1861 109.711 60.4817 109.648 60.7774L108.828 64.6252ZM106.288 61.6688C106.1 61.6912 105.907 61.7181 105.71 61.7494C105.513 61.7808 105.294 61.8211 105.056 61.8704C104.689 61.951 104.411 62.0406 104.21 62.1257C104.013 62.2153 103.887 62.381 103.833 62.6184C103.798 62.8066 103.842 62.9365 103.972 63.0171C104.102 63.0933 104.313 63.1336 104.604 63.1336C104.774 63.1336 104.949 63.1112 105.124 63.0664C105.298 63.0216 105.46 62.9589 105.607 62.8827C105.751 62.8066 105.876 62.717 105.97 62.614C106.069 62.5154 106.127 62.4079 106.149 62.2959L106.288 61.6688Z" fill="black"/>
<path d="M115.588 57.6057H117.276L116.896 59.4065H115.207L114.66 61.9598C114.593 62.2868 114.602 62.5287 114.692 62.681C114.781 62.8333 115.028 62.9094 115.431 62.9094C115.691 62.9094 115.937 62.8825 116.17 62.8288L115.798 64.5758C115.471 64.6519 115.131 64.7057 114.781 64.737C114.432 64.7684 114.078 64.7863 113.729 64.7863C113.393 64.7863 113.061 64.7594 112.739 64.7012C112.416 64.6474 112.134 64.5355 111.897 64.3652C111.659 64.195 111.489 63.9621 111.381 63.662C111.274 63.3618 111.269 62.9677 111.377 62.4794L112.035 59.402H110.938L111.319 57.6013H112.416L112.586 56.8174L116.089 55.2182L115.588 57.6057Z" fill="black"/>
<path d="M118.575 59.4064H117.402L117.783 57.6057H118.956C119.032 57.0906 119.189 56.6695 119.427 56.3425C119.664 56.0155 119.96 55.7557 120.318 55.5631C120.672 55.3749 121.071 55.2406 121.514 55.1734C121.957 55.1017 122.419 55.0659 122.894 55.0659C123.176 55.0659 123.44 55.0838 123.682 55.1241C123.924 55.1599 124.134 55.2092 124.314 55.2674L123.964 56.889C123.839 56.8442 123.709 56.8084 123.575 56.7815C123.44 56.7546 123.288 56.7412 123.118 56.7412C122.759 56.7501 122.499 56.8218 122.338 56.9607C122.177 57.0995 122.078 57.3145 122.043 57.6057H123.7L123.319 59.4064H121.742L120.636 64.6205H117.469L118.575 59.4064Z" fill="black"/>
<path d="M128.726 57.382C129.353 57.382 129.918 57.4492 130.429 57.5791C130.935 57.709 131.351 57.924 131.674 58.2196C131.996 58.5153 132.22 58.9005 132.341 59.3708C132.462 59.8457 132.449 60.419 132.31 61.0999C132.153 61.848 131.916 62.4572 131.593 62.9365C131.275 63.4158 130.89 63.7921 130.446 64.0653C130.003 64.343 129.501 64.5312 128.946 64.6387C128.39 64.7417 127.795 64.7955 127.163 64.7955C126.531 64.7955 125.958 64.7417 125.447 64.6387C124.937 64.5356 124.516 64.343 124.184 64.0653C123.853 63.7876 123.629 63.4113 123.517 62.9365C123.405 62.4572 123.427 61.848 123.584 61.0999C123.727 60.419 123.956 59.8457 124.278 59.3708C124.596 58.896 124.986 58.5153 125.438 58.2196C125.891 57.924 126.397 57.7134 126.957 57.5791C127.508 57.4492 128.099 57.382 128.726 57.382ZM127.575 62.8335C128.104 62.8335 128.516 62.6991 128.811 62.4258C129.107 62.1526 129.318 61.727 129.443 61.1447L129.479 60.979C129.604 60.4056 129.586 59.9845 129.416 59.7202C129.246 59.4559 128.883 59.3216 128.323 59.3216C127.763 59.3216 127.342 59.4559 127.06 59.7247C126.778 59.9935 126.576 60.4101 126.455 60.979L126.424 61.1447C126.299 61.727 126.325 62.1526 126.509 62.4258C126.688 62.6991 127.042 62.8335 127.575 62.8335Z" fill="black"/>
<path d="M134.223 57.6051H137.144L137.09 58.389H137.126C137.26 58.2636 137.408 58.1427 137.574 58.0262C137.739 57.9097 137.923 57.8067 138.133 57.7171C138.344 57.6275 138.572 57.5558 138.823 57.5066C139.074 57.4528 139.356 57.4304 139.665 57.4304C139.831 57.4304 139.984 57.4394 140.131 57.4573C140.275 57.4752 140.423 57.5021 140.575 57.5424L140.082 59.9031C139.93 59.8493 139.773 59.809 139.607 59.7732C139.437 59.7373 139.195 59.7239 138.873 59.7239C138.232 59.7239 137.712 59.8896 137.323 60.2166C136.933 60.5436 136.651 61.0946 136.49 61.8606L135.907 64.6244H132.74L134.223 57.6051Z" fill="black"/>
<path d="M141.56 57.6065H144.413L144.391 58.265H144.427C144.808 57.929 145.229 57.6961 145.699 57.5707C146.165 57.4452 146.675 57.3781 147.235 57.3781C147.473 57.3781 147.697 57.4049 147.907 57.4587C148.118 57.5124 148.302 57.5796 148.467 57.6647C148.633 57.7498 148.767 57.8484 148.875 57.9604C148.982 58.0724 149.059 58.1844 149.103 58.2963C149.139 58.2829 149.229 58.2247 149.359 58.1306C149.493 58.0321 149.686 57.929 149.928 57.817C150.174 57.705 150.483 57.6065 150.85 57.5124C151.222 57.4228 151.657 57.3781 152.154 57.3781C152.669 57.3781 153.09 57.4452 153.413 57.5841C153.735 57.723 153.981 57.9021 154.152 58.1261C154.322 58.3501 154.42 58.6054 154.461 58.8921C154.497 59.1788 154.483 59.47 154.416 59.7701L153.386 64.6168H150.317L151.133 60.7914C151.164 60.6257 151.186 60.4689 151.2 60.3166C151.213 60.1643 151.2 60.0299 151.155 59.9134C151.11 59.797 151.029 59.7074 150.909 59.6402C150.788 59.573 150.613 59.5416 150.384 59.5416C150.183 59.5416 150.008 59.5775 149.86 59.6536C149.713 59.7298 149.583 59.8283 149.475 59.9582C149.368 60.0836 149.278 60.2315 149.206 60.3927C149.135 60.5585 149.081 60.7332 149.045 60.9168L148.261 64.6213H145.193L146.008 60.7959C146.039 60.6301 146.062 60.4734 146.075 60.3211C146.089 60.1688 146.075 60.0344 146.03 59.9179C145.986 59.8014 145.905 59.7118 145.784 59.6447C145.663 59.5775 145.488 59.5461 145.26 59.5461C145.058 59.5461 144.884 59.5864 144.736 59.6626C144.588 59.7387 144.458 59.8462 144.351 59.9761C144.243 60.106 144.154 60.2583 144.082 60.4286C144.01 60.5988 143.956 60.778 143.921 60.9661L143.15 64.6258H140.073L141.56 57.6065Z" fill="black"/>
<path d="M100.941 8H114.881L106.558 42.0976H92.6182L100.941 8Z" fill="black"/>
<path d="M120.785 8H142.663C146.341 8 149.333 8.48378 151.64 9.45582C153.947 10.4234 155.689 11.6955 156.867 13.2678C158.045 14.8401 158.731 16.6543 158.923 18.7059C159.116 20.7575 158.955 22.8494 158.44 24.9861C157.794 27.5976 156.76 29.9672 155.34 32.086C153.92 34.2093 152.097 36.0055 149.87 37.4793C147.644 38.953 145.015 40.0908 141.982 40.8926C138.949 41.6944 135.514 42.0931 131.675 42.0931H112.462L120.785 8ZM128.194 33.497H132.987C135.084 33.497 136.853 33.1969 138.286 32.5922C139.724 31.9875 140.893 31.2439 141.794 30.3569C142.699 29.47 143.384 28.5293 143.85 27.5349C144.316 26.536 144.647 25.6446 144.844 24.8607C144.943 24.4933 145.019 24.0364 145.086 23.4899C145.149 22.9435 145.136 22.3656 145.037 21.7609C144.938 21.1562 144.728 20.5469 144.405 19.9288C144.083 19.3106 143.581 18.7552 142.905 18.2624C142.228 17.7697 141.341 17.371 140.244 17.0619C139.146 16.7529 137.776 16.6005 136.127 16.6005H132.306L128.194 33.497Z" fill="black"/>
<path d="M35.9344 28.9862L34.3352 20.9367H34.1919L28.3372 28.9862L22.0929 37.5868L18.8497 42.0976H4.57373L29.69 8H44.6469L52.8757 42.0976H38.5997L37.6814 37.5868L35.9344 28.9862Z" fill="black"/>
<path d="M74.4127 42.0976H59.3124L53.6504 8H67.5412L70.0093 28.9459H70.1079L82.834 8H97.3519L74.4127 42.0976Z" fill="black"/>
</svg>
