<svg width="103" height="40" viewBox="0 0 103 40" fill="none" xmlns="http://www.w3.org/2000/svg">
<path d="M14.0983 18.9268C13.1881 18.4785 12.0315 18.0007 10.6513 17.5025C9.33956 17.0406 8.37458 16.6356 7.77917 16.2966C7.15181 15.9371 7.07882 15.5754 7.07882 15.3319C7.07882 14.8496 7.31835 14.4946 7.8362 14.2102C8.42705 13.8849 9.22778 13.7211 10.2201 13.7211C10.9866 13.7211 11.7532 13.8121 12.5014 13.9895C13.2611 14.1716 14.0938 14.4469 14.9766 14.8086L15.442 14.9997L16.7834 10.5449L16.4343 10.3742C15.5561 9.94649 14.5363 9.60748 13.398 9.36403C12.2664 9.12286 11.1326 9 10.0308 9C7.22025 9 4.95038 9.58473 3.28961 10.736C1.57865 11.9237 0.709478 13.5891 0.709478 15.6869C0.709478 16.8745 1.05395 17.887 1.72921 18.6947C2.37709 19.4705 3.1687 20.0848 4.08349 20.5262C4.95266 20.9449 6.07962 21.3999 7.4347 21.8754C8.39283 22.2053 9.14337 22.4897 9.66351 22.7173C10.1494 22.9311 10.5532 23.1905 10.8657 23.4863C11.1258 23.7343 11.2513 24.0119 11.2513 24.3395C11.2513 24.658 11.1623 25.1222 10.3867 25.4771C9.69545 25.7934 8.81487 25.9526 7.77005 25.9526C6.79138 25.9526 5.81954 25.8571 4.88422 25.6659C3.93977 25.4748 2.8881 25.1722 1.75431 24.7672L1.29805 24.6034L0 29.0765L0.353599 29.2403C1.31402 29.6885 2.46607 30.0412 3.7778 30.2937C5.0827 30.544 6.4469 30.6714 7.83392 30.6714C10.9524 30.6714 13.3774 30.0935 15.0405 28.9514C16.756 27.7728 17.6252 26.1028 17.6252 23.9846C17.6252 22.7582 17.267 21.7071 16.5575 20.8584C15.8777 20.0462 15.0519 19.3955 14.0983 18.9268Z" fill="black"/>
<path d="M30.2695 21.5609H37.1009V16.9599H30.2695V13.9418H38.3376V9.34302H23.7974V30.3286H38.9536V25.7276H30.2695V21.5609Z" fill="black"/>
<path d="M51.5981 9.34302H45.126V30.3286H60.2823V25.7276H51.5981V9.34302Z" fill="black"/>
<path d="M82.2387 11.0306C80.7811 9.90934 78.4695 9.34302 75.3675 9.34302H66.1802V30.3286H72.6642V23.5374H75.3675C78.4695 23.5374 80.7811 22.9688 82.2387 21.8498C83.7328 20.7012 84.4912 18.8817 84.4912 16.4413C84.4912 14.0009 83.7328 12.1792 82.2387 11.0306ZM72.6642 13.9418H75.3675C76.3537 13.9418 77.0483 14.1328 77.4332 14.5058C77.8136 14.8766 78.0072 15.527 78.0072 16.4391C78.0072 17.3306 77.8136 17.972 77.4332 18.3427C77.0461 18.7202 76.3491 18.9204 75.3675 18.9363H72.6642V13.9418Z" fill="black"/>
<path d="M95.7381 19.9043H89.2915V30.3285H95.7381V19.9043Z" fill="black"/>
<path d="M102.253 9.47998H95.7383V19.9042H102.253V9.47998Z" fill="black"/>
</svg>
