<svg width="327" height="140" viewBox="0 0 327 140" fill="none" xmlns="http://www.w3.org/2000/svg">
<path d="M37.728 24.392H56.376V33.464H4.32V24.392H24.192V22.16H5.76V1.856H54.936V10.856H19.296V13.088H54.936V22.16H37.728V24.392ZM44.136 35.696C47.544 35.696 50.28 36.632 52.344 38.504C54.408 40.328 55.44 42.776 55.44 45.848C55.44 48.92 54.408 51.392 52.344 53.264C50.28 55.088 47.544 56 44.136 56H17.784C14.376 56 11.64 55.088 9.576 53.264C7.512 51.392 6.48 48.92 6.48 45.848C6.48 42.776 7.512 40.328 9.576 38.504C11.64 36.632 14.376 35.696 17.784 35.696H44.136ZM40.536 46.64C40.92 46.64 41.232 46.544 41.472 46.352C41.76 46.16 41.904 45.896 41.904 45.56C41.904 45.224 41.76 44.96 41.472 44.768C41.232 44.576 40.92 44.48 40.536 44.48H21.384C21 44.48 20.664 44.576 20.376 44.768C20.136 44.96 20.016 45.224 20.016 45.56C20.016 45.896 20.136 46.16 20.376 46.352C20.664 46.544 21 46.64 21.384 46.64H40.536ZM105.464 1.28H118.28V56H105.464V33.68H103.232V55.28H90.4157V1.28H103.232V22.88H105.464V1.28ZM78.4637 12.8V42.32H87.8237V53.12H64.9997V2H86.4557V12.8H78.4637ZM177.345 1.712V25.328H128.385V1.712H177.345ZM163.809 15.176V11.792H141.921V15.176H163.809ZM126.945 27.992H178.785V38.144H159.633V42.32H146.097V38.144H126.945V27.992ZM141.921 41.024V45.2H177.345V56H128.385V41.024H141.921ZM229.534 18.416C232.078 18.416 234.118 17.672 235.654 16.184C237.19 14.648 237.958 12.632 237.958 10.136C237.958 7.64 237.19 5.648 235.654 4.16C234.118 2.624 232.078 1.856 229.534 1.856H197.278C194.734 1.856 192.694 2.624 191.158 4.16C189.622 5.648 188.854 7.64 188.854 10.136C188.854 12.632 189.622 14.648 191.158 16.184C192.694 17.672 194.734 18.416 197.278 18.416H229.534ZM203.614 11.36C203.278 11.36 202.99 11.24 202.75 11C202.51 10.76 202.39 10.472 202.39 10.136C202.39 9.752 202.51 9.464 202.75 9.272C202.99 9.032 203.278 8.912 203.614 8.912H223.198C223.582 8.912 223.87 9.032 224.062 9.272C224.302 9.464 224.422 9.752 224.422 10.136C224.422 10.472 224.302 10.76 224.062 11C223.87 11.24 223.582 11.36 223.198 11.36H203.614ZM187.414 28.496H239.398V20.648H187.414V28.496ZM237.958 46.856V30.584H188.854V37.64H224.422V39.728H188.854V56H238.678V48.872H202.39V46.856H237.958ZM41.184 80.64V85.536H54L54.72 72H5.76V80.64H41.184ZM4.32 95.76H56.16V87.696H4.32V95.76ZM54.72 115.92V97.92H5.76V105.84H41.256V108H5.76V126H55.44V118.08H19.296V115.92H54.72ZM116.629 113.04H97.4767V109.8H115.909V99H78.9727V96.336H115.189V72H66.2288V82.8H102.373V85.536H66.2288V109.8H83.9408V113.04H64.7888V123.84H116.629V113.04ZM157.297 87.984V95.256H125.258V71.928H138.794V75.96H143.834V71.928H157.297V78.84H162.194V71.28H175.658V95.904H162.194V87.984H157.297ZM143.834 87.84V83.448H138.794V87.84H143.834ZM140.234 118.08H176.378V126H126.698V108H162.194V105.84H126.698V97.92H175.658V115.92H140.234V118.08ZM236.863 113.04H217.711V109.8H236.143V99H199.207V96.336H235.423V72H186.463V82.8H222.607V85.536H186.463V109.8H204.175V113.04H185.023V123.84H236.863V113.04ZM245.852 97.2L245.492 72H259.028L258.668 97.2L257.948 109.584H246.572L245.852 97.2ZM252.26 113.184C254.18 113.184 255.764 113.808 257.012 115.056C258.308 116.304 258.956 117.936 258.956 119.952C258.956 121.968 258.308 123.6 257.012 124.848C255.764 126.096 254.18 126.72 252.26 126.72C250.34 126.72 248.732 126.072 247.436 124.776C246.14 123.48 245.492 121.872 245.492 119.952C245.492 117.936 246.14 116.304 247.436 115.056C248.732 113.808 250.34 113.184 252.26 113.184Z" fill="white"/>
</svg>
