<svg width="404" height="212" viewBox="0 0 404 212" fill="none" xmlns="http://www.w3.org/2000/svg">
<path d="M87.4985 33.978H112.88V46.326H42.0265V33.978H69.0745V30.94H43.9865V3.304H110.92V15.554H62.4105V18.592H110.92V30.94H87.4985V33.978ZM96.2205 49.364C100.859 49.364 104.583 50.638 107.392 53.186C110.202 55.6687 111.606 59.0007 111.606 63.182C111.606 67.3633 110.202 70.728 107.392 73.276C104.583 75.7587 100.859 77 96.2205 77H60.3525C55.7138 77 51.9898 75.7587 49.1805 73.276C46.3712 70.728 44.9665 67.3633 44.9665 63.182C44.9665 59.0007 46.3712 55.6687 49.1805 53.186C51.9898 50.638 55.7138 49.364 60.3525 49.364H96.2205ZM91.3205 64.26C91.8432 64.26 92.2678 64.1293 92.5945 63.868C92.9865 63.6067 93.1825 63.2473 93.1825 62.79C93.1825 62.3327 92.9865 61.9733 92.5945 61.712C92.2678 61.4507 91.8432 61.32 91.3205 61.32H65.2525C64.7298 61.32 64.2725 61.4507 63.8805 61.712C63.5538 61.9733 63.3905 62.3327 63.3905 62.79C63.3905 63.2473 63.5538 63.6067 63.8805 63.868C64.2725 64.1293 64.7298 64.26 65.2525 64.26H91.3205ZM179.694 2.52H197.138V77H179.694V46.62H176.656V76.02H159.212V2.52H176.656V31.92H179.694V2.52ZM142.944 18.2V58.38H155.684V73.08H124.618V3.49999H153.822V18.2H142.944ZM277.533 3.108V35.252H210.893V3.108H277.533ZM259.109 21.434V16.828H229.317V21.434H259.109ZM208.933 38.878H279.493V52.696H253.425V58.38H235.001V52.696H208.933V38.878ZM229.317 56.616V62.3H277.533V77H210.893V56.616H229.317ZM348.567 25.844C352.03 25.844 354.807 24.8313 356.897 22.806C358.988 20.7153 360.033 17.9713 360.033 14.574C360.033 11.1767 358.988 8.46533 356.897 6.44C354.807 4.34933 352.03 3.304 348.567 3.304H304.663C301.201 3.304 298.424 4.34933 296.333 6.44C294.243 8.46533 293.197 11.1767 293.197 14.574C293.197 17.9713 294.243 20.7153 296.333 22.806C298.424 24.8313 301.201 25.844 304.663 25.844H348.567ZM313.287 16.24C312.83 16.24 312.438 16.0767 312.111 15.75C311.785 15.4233 311.621 15.0313 311.621 14.574C311.621 14.0513 311.785 13.6593 312.111 13.398C312.438 13.0713 312.83 12.908 313.287 12.908H339.943C340.466 12.908 340.858 13.0713 341.119 13.398C341.446 13.6593 341.609 14.0513 341.609 14.574C341.609 15.0313 341.446 15.4233 341.119 15.75C340.858 16.0767 340.466 16.24 339.943 16.24H313.287ZM291.237 39.564H361.993V28.882H291.237V39.564ZM360.033 64.554V42.406H293.197V52.01H341.609V54.852H293.197V77H361.013V67.298H311.621V64.554H360.033ZM78.8519 113.26V119.924H96.2959L97.2759 101.5H30.6359V113.26H78.8519ZM28.6759 133.84H99.2359V122.864H28.6759V133.84ZM97.2759 161.28V136.78H30.6359V147.56H78.9499V150.5H30.6359V175H98.2559V164.22H49.0599V161.28H97.2759ZM181.541 157.36H155.473V152.95H180.561V138.25H130.287V134.624H179.581V101.5H112.941V116.2H162.137V119.924H112.941V152.95H137.049V157.36H110.981V172.06H181.541V157.36ZM236.895 123.256V133.154H193.285V101.402H211.709V106.89H218.569V101.402H236.895V110.81H243.559V100.52H261.885V134.036H243.559V123.256H236.895ZM218.569 123.06V117.082H211.709V123.06H218.569ZM213.669 164.22H262.865V175H195.245V150.5H243.559V147.56H195.245V136.78H261.885V161.28H213.669V164.22ZM345.193 157.36H319.125V152.95H344.213V138.25H293.939V134.624H343.233V101.5H276.593V116.2H325.789V119.924H276.593V152.95H300.701V157.36H274.633V172.06H345.193V157.36ZM357.428 135.8L356.938 101.5H375.362L374.872 135.8L373.892 152.656H358.408L357.428 135.8ZM366.15 157.556C368.763 157.556 370.919 158.405 372.618 160.104C374.382 161.803 375.264 164.024 375.264 166.768C375.264 169.512 374.382 171.733 372.618 173.432C370.919 175.131 368.763 175.98 366.15 175.98C363.536 175.98 361.348 175.098 359.584 173.334C357.82 171.57 356.938 169.381 356.938 166.768C356.938 164.024 357.82 161.803 359.584 160.104C361.348 158.405 363.536 157.556 366.15 157.556Z" fill="white"/>
</svg>
